<svg xmlns="http://www.w3.org/2000/svg" 
    xmlns:xlink="http://www.w3.org/1999/xlink" viewBox="0 0 50 48.2">
    <defs>
        <style>.cls-1{fill:none;stroke:#FFF;stroke-linecap:round;stroke-linejoin:round;stroke-width:2px;}.cls-2{clip-path:url(#clip-path);}</style>
        <clipPath id="clip-path">
            <path class="cls-1" d="M43,5.2H41.8V7A2.4,2.4,0,1,1,37,7V5.2H13V7A2.4,2.4,0,0,1,8.2,7V5.2H7a6,6,0,0,0-6,6v6H49v-6A6,6,0,0,0,43,5.2Z"/>
        </clipPath>
    </defs>
    <title>calendar</title>
    <g id="Camada_2" data-name="Camada 2">
        <g id="Marketing-2-iStock">
            <path class="cls-1" d="M1,41.2a6,6,0,0,0,6,6H43a6,6,0,0,0,6-6v-24H1Z"/>
            <g class="cls-2">
                <path class="cls-1" d="M43,5.2H7a6,6,0,0,0-6,6v6H49v-6A6,6,0,0,0,43,5.2Z"/>
            </g>
            <path class="cls-1" d="M43,5.2H41.8V7A2.4,2.4,0,1,1,37,7V5.2H13V7A2.4,2.4,0,0,1,8.2,7V5.2H7a6,6,0,0,0-6,6v6H49v-6A6,6,0,0,0,43,5.2Z"/>
            <path class="cls-1" d="M10.6,9.4h0A2.39,2.39,0,0,1,8.2,7V3.4A2.39,2.39,0,0,1,10.6,1h0A2.39,2.39,0,0,1,13,3.4V7A2.39,2.39,0,0,1,10.6,9.4Z"/>
            <path class="cls-1" d="M39.4,9.4h0A2.39,2.39,0,0,1,37,7V3.4A2.39,2.39,0,0,1,39.4,1h0a2.39,2.39,0,0,1,2.4,2.4V7A2.39,2.39,0,0,1,39.4,9.4Z"/>
            <path class="cls-1" d="M9,25.7a.52.52,0,0,1-.21,0l-.15-.11a.5.5,0,0,1-.14-.35.47.47,0,0,1,.15-.35.27.27,0,0,1,.08-.07l.11-.06h0l.08,0H9a.5.5,0,0,1,0,1Z"/>
            <path class="cls-1" d="M33,25.7a.5.5,0,1,1,.5-.5A.5.5,0,0,1,33,25.7Zm-8,0a.5.5,0,1,1,.5-.5A.5.5,0,0,1,25,25.7Zm-8,0a.5.5,0,1,1,.5-.5A.5.5,0,0,1,17,25.7Z"/>
            <path class="cls-1" d="M41,25.7a.52.52,0,0,1-.21,0l-.15-.11a.78.78,0,0,1-.12-.19.51.51,0,0,1,0-.16,2,2,0,0,1,0-.21l.06-.09a.53.53,0,0,1,.4-.2.87.87,0,0,1,.25.06h0l.06.05.1.11.05.08a.49.49,0,0,1,0,.11.65.65,0,0,1,0,.31.6.6,0,0,1-.11.14.57.57,0,0,1-.19.13Z"/>
            <path class="cls-1" d="M9,32.7a.5.5,0,0,1-.35-.85.54.54,0,0,1,.7,0A.5.5,0,0,1,9,32.7Z"/>
            <path class="cls-1" d="M33,32.7a.5.5,0,1,1,.5-.5A.5.5,0,0,1,33,32.7Zm-8,0a.5.5,0,1,1,.5-.5A.5.5,0,0,1,25,32.7Zm-8,0a.5.5,0,1,1,.5-.5A.5.5,0,0,1,17,32.7Z"/>
            <path class="cls-1" d="M41,32.7a.52.52,0,0,1-.21,0l-.15-.11a.78.78,0,0,1-.12-.19.52.52,0,0,1,.13-.51A.47.47,0,0,1,41,31.7a.87.87,0,0,1,.25.06h0l.06.05a.54.54,0,0,1,.14.16l.06.17a.69.69,0,0,1,0,.28.6.6,0,0,1-.11.14.57.57,0,0,1-.19.13Z"/>
            <path class="cls-1" d="M9,39.7a.47.47,0,0,1-.35-.15.57.57,0,0,1-.13-.19.51.51,0,0,1,0-.16A.69.69,0,0,1,8.55,39l0-.07A.56.56,0,0,1,9,38.72a.5.5,0,0,1,.35.13l.1.12,0,.13a.65.65,0,0,1,0,.31.6.6,0,0,1-.11.14A.47.47,0,0,1,9,39.7Z"/>
            <path class="cls-1" d="M33,39.7a.5.5,0,1,1,.5-.5A.5.5,0,0,1,33,39.7Zm-8,0a.5.5,0,1,1,.5-.5A.5.5,0,0,1,25,39.7Zm-8,0a.5.5,0,1,1,.5-.5A.5.5,0,0,1,17,39.7Z"/>
            <path class="cls-1" d="M41,39.7a.47.47,0,0,1-.35-.15.57.57,0,0,1-.13-.19.52.52,0,0,1,.13-.51A.47.47,0,0,1,41,38.7a.87.87,0,0,1,.25.06h0l.06,0a.54.54,0,0,1,.14.16l.06.17a.69.69,0,0,1,0,.28.6.6,0,0,1-.11.14.41.41,0,0,1-.17.12A.45.45,0,0,1,41,39.7Z"/>
        </g>
    </g>
</svg>