<svg xmlns="http://www.w3.org/2000/svg" viewBox="0 0 70.67 61.97"><defs><style>.cls-1{fill:none;stroke:#1a1c27;stroke-width:2.5px;}</style></defs><title>cart_mais</title><g id="Camada_2" data-name="Camada 2"><g id="Camada_1-2" data-name="Camada 1"><path class="cls-1" d="M23.91,8.68h-9m34.37,7.44H34.37m7.47-7.44V23.55m14.95-7.43A14.95,14.95,0,1,1,41.84,1.25,14.9,14.9,0,0,1,56.79,16.12Zm4.5,40.12a4.5,4.5,0,1,1-4.49-4.47A4.49,4.49,0,0,1,61.29,56.24Zm-29.91,0a4.5,4.5,0,1,1-4.49-4.47A4.49,4.49,0,0,1,31.38,56.24Zm29.89-8.9H29.12a3,3,0,0,1-2.86-2.12L14.09,4.86a3,3,0,0,0-2.86-2.12H0M59.78,8.68h8.15a1.49,1.49,0,0,1,1.43,1.92L61.92,34.83a3,3,0,0,1-2.86,2.1H23.91"/></g></g></svg>