<svg xmlns="http://www.w3.org/2000/svg" viewBox="0 0 109.66 98"><defs><style>.cls-1{stroke:#000;stroke-miterlimit:10;}</style></defs><title>cart</title><g id="Camada_2" data-name="Camada 2"><g id="Black_Friday_icons" data-name="Black Friday icons"><path class="cls-1" d="M107.44,17.26A7.12,7.12,0,0,0,102,14.77H33.34a2,2,0,0,0,0,4H102a3.14,3.14,0,0,1,3.11,3.56l-6.59,29,0,.13a5.05,5.05,0,0,1-5,4.24H46.7a2,2,0,0,0,0,4H93.56a9,9,0,0,0,8.89-7.55l6.59-29,0-.13A7.14,7.14,0,0,0,107.44,17.26Z"/><path class="cls-1" d="M43.55,78.7A9.4,9.4,0,1,0,53,88.1,9.41,9.41,0,0,0,43.55,78.7Zm0,14.8A5.4,5.4,0,1,1,49,88.1,5.4,5.4,0,0,1,43.55,93.5Z"/><path class="cls-1" d="M85.33,78.7a9.4,9.4,0,1,0,9.4,9.4A9.41,9.41,0,0,0,85.33,78.7Zm0,14.8a5.4,5.4,0,1,1,5.4-5.4A5.4,5.4,0,0,1,85.33,93.5Z"/><path class="cls-1" d="M92.73,69.53h-56L31.52,49,21.35,4.92A5.86,5.86,0,0,0,15.67.5H2.5a2,2,0,0,0,0,4H15.67a1.85,1.85,0,0,1,1.79,1.36L27,47.36a1.89,1.89,0,0,0,.06.47l.54,2.11v.11l5.6,22a2,2,0,0,0,1.94,1.51H92.73a2,2,0,0,0,0-4Z"/></g></g></svg>