<svg xmlns="http://www.w3.org/2000/svg" viewBox="0 0 60.2 44.2">
    <defs>
        <style>.cls-1,.cls-2{fill:none;stroke:#000;stroke-linejoin:round;stroke-width:2.2px;}.cls-2{stroke-linecap:round;}</style>
    </defs>
    <title>log</title>
    <g id="Camada_2" data-name="Camada 2">
        <g id="Icons">
            <path class="cls-1" d="M1.1,29.1V4.1a3,3,0,0,1,3-3h34a3,3,0,0,1,3,3v7"/>
            <circle class="cls-1" cx="10.1" cy="38.1" r="5"/>
            <circle class="cls-1" cx="24.1" cy="38.1" r="5"/>
            <circle class="cls-1" cx="50.1" cy="38.1" r="5"/>
            <path class="cls-1" d="M55,37.1h4.1v-20a6,6,0,0,0-6-6h-12v26h4.1"/>
            <path class="cls-1" d="M41.1,29.1H1.1v5a3,3,0,0,0,3,3H5.2"/>
            <line class="cls-1" x1="29" y1="37.1" x2="41.1" y2="37.1"/>
            <line class="cls-1" x1="15" y1="37.1" x2="19.2" y2="37.1"/>
            <line class="cls-2" x1="56.1" y1="30.1" x2="59.1" y2="30.1"/>
        </g>
    </g>
</svg>