<svg xmlns="http://www.w3.org/2000/svg" viewBox="0 0 139.49 67.01"><defs><style>.cls-1{fill:#bf0000;}.cls-2{fill:#999;}</style></defs><title>genesis</title><g id="Camada_2" data-name="Camada 2"><g id="Logos"><polygon class="cls-1" points="112.54 34.47 28.91 34.47 35.58 41.13 112.54 34.47"/><path class="cls-1" d="M36.66,7.53v1A8.43,8.43,0,0,0,31.81,7C26,7,21.5,12.31,21.5,18.88S26,30.78,31.81,30.78a8.35,8.35,0,0,0,4.85-1.57v1h5.15V7.53ZM31.81,25.31c-2.89,0-5-2.84-5-6.43s2.11-6.44,5-6.44,4.93,2.84,4.93,6.44S34.7,25.31,31.81,25.31Z"/><path class="cls-1" d="M77.92,7.53V20.86a4.24,4.24,0,1,1-8.44,0V7.53H64.33V20.86c0,5.47,3.74,9.92,9.21,9.92a7.93,7.93,0,0,0,4.38-1.4v.84h5.15V7.53Z"/><path class="cls-1" d="M125.9,30.22V16.89a4.24,4.24,0,1,1,8.44,0V30.22h5.15V16.89c0-5.47-3.74-9.92-9.21-9.92a7.93,7.93,0,0,0-4.38,1.4V7.53h-5.15V30.22Z"/><path class="cls-1" d="M6.66,30.22V21.43h3.81l6.59,8.79H23.8l-8-10.61A9.77,9.77,0,0,0,10.17,1.87H1.27V30.22Zm0-23h3.51a4.39,4.39,0,1,1,0,8.78H6.66Z"/><path class="cls-1" d="M97,24.85a3.12,3.12,0,0,1-1.72.56,2.53,2.53,0,0,1-2.43-2.78V12.91h4.4V7.53H92.8V1.87H87.65V7.53H84.92v5.38h2.73V22.7a7.75,7.75,0,0,0,7.65,8.1,10.62,10.62,0,0,0,5-1.43Z"/><polygon class="cls-1" points="54.62 18.17 63.45 7.53 56.23 7.53 50.05 15.43 50.05 0 44.75 0 44.75 30.22 50.05 30.22 50.05 20.9 57.65 30.22 64.86 30.22 54.62 18.17"/><path class="cls-1" d="M108.84,7c-6,0-10.23,5.24-10.23,11.92,0,7,5.36,11.93,10.74,11.93,2.72,0,6.2-.93,9.13-5.08l-4.55-2.63c-3.52,5.19-9.38,2.56-10.06-2.63H118.7C120,12.31,114.7,7,108.84,7Zm4.5,9h-9.28C105.15,10.63,112.34,10.33,113.34,16Z"/><path class="cls-2" d="M17,62.84A8.4,8.4,0,0,1,9.41,67C3.84,67,0,62.37,0,55.62S3.89,44.08,9.41,44.08c3.08,0,5,1.07,7.17,4l-2,1.63c-1.4-2.24-3.08-3.31-5.24-3.31-4.06,0-6.66,3.62-6.66,9.27s2.55,9,6.69,9A5.85,5.85,0,0,0,14.5,62.2V57.58H9.58V55.23H17Z"/><path class="cls-2" d="M33.57,63.35A8,8,0,0,1,26.49,67c-4.79,0-8.15-3.83-8.15-9.29s3.19-9.21,7.81-9.21c4.29,0,7.65,3.75,7.65,8.54a7.47,7.47,0,0,1-.12,1.37H21A6.94,6.94,0,0,0,22.82,63a5,5,0,0,0,3.67,1.71,5.38,5.38,0,0,0,5-3Zm-2.66-7.2c-.22-3.25-2.13-5.38-4.73-5.38A4.93,4.93,0,0,0,22,53.24a6.66,6.66,0,0,0-.89,2.91Z"/><path class="cls-2" d="M38.11,50.33A7,7,0,0,1,43,48.51c3.78,0,6.36,2.88,6.36,7.08v11H46.79v-11c0-2.88-1.63-4.7-4.2-4.7a4.74,4.74,0,0,0-4.54,4.62V66.57H35.53V48.93h2.24Z"/><path class="cls-2" d="M66.05,63.35A8,8,0,0,1,59,67c-4.79,0-8.15-3.83-8.15-9.29s3.19-9.21,7.81-9.21c4.29,0,7.65,3.75,7.65,8.54a7.47,7.47,0,0,1-.12,1.37H53.51A6.94,6.94,0,0,0,55.3,63,5,5,0,0,0,59,64.75a5.38,5.38,0,0,0,5-3Zm-2.66-7.2c-.22-3.25-2.13-5.38-4.73-5.38a4.93,4.93,0,0,0-4.23,2.47,6.66,6.66,0,0,0-.89,2.91Z"/><path class="cls-2" d="M76.22,52.59a4.72,4.72,0,0,0-3.56-1.73c-1.74,0-2.91,1-2.91,2.46a2.22,2.22,0,0,0,1,2c.33.25.33.25,3.27,1.51,3.42,1.51,4.76,3,4.76,5.35,0,2.94-2.35,4.81-6.07,4.81a7.45,7.45,0,0,1-6.25-2.88l1.77-1.6a5.58,5.58,0,0,0,4.51,2.13c2.07,0,3.36-.92,3.36-2.43a3.23,3.23,0,0,0-1.46-2.44A16.6,16.6,0,0,0,71,58c-2.74-1.15-3.89-2.55-3.89-4.79,0-2.83,2.24-4.7,5.6-4.7A7,7,0,0,1,78,50.72Z"/><path class="cls-2" d="M80.58,46.74V43.83H83.5v2.91Zm.2,19.83V48.93H83.3V66.57Z"/><path class="cls-2" d="M95,52.59a4.72,4.72,0,0,0-3.56-1.73c-1.74,0-2.91,1-2.91,2.46a2.2,2.2,0,0,0,1,2c.33.25.33.25,3.27,1.51,3.42,1.51,4.76,3,4.76,5.35,0,2.94-2.35,4.81-6.07,4.81a7.44,7.44,0,0,1-6.25-2.88L87,62.53a5.57,5.57,0,0,0,4.51,2.13c2.07,0,3.35-.92,3.35-2.43a3.21,3.21,0,0,0-1.45-2.44A16.86,16.86,0,0,0,89.71,58c-2.74-1.15-3.89-2.55-3.89-4.79,0-2.83,2.24-4.7,5.6-4.7a7,7,0,0,1,5.37,2.21Z"/></g></g></svg>