<svg xmlns="http://www.w3.org/2000/svg" 
    xmlns:xlink="http://www.w3.org/1999/xlink" viewBox="0 0 56.32 42.82">
    <defs>
        <style>.cls-1{fill:none;}.cls-2{clip-path:url(#clip-path);}.cls-3{fill:#FFF;}</style>
        <clipPath id="clip-path" transform="translate(0 0)">
            <rect class="cls-1" width="56.32" height="42.82"/>
        </clipPath>
    </defs>
    <title>vendas</title>
    <g id="Camada_2" data-name="Camada 2">
        <g id="Camada_1-2" data-name="Camada 1">
            <g class="cls-2">
                <path class="cls-3" d="M22.82,26.91l16.1,9.87,1,.56V1.79l-1,.59L22.82,12.24ZM40,39.15a1.68,1.68,0,0,1-.89-.26l-1-.59L21.47,28.15a.88.88,0,0,1-.42-.75V11.74a.89.89,0,0,1,.42-.75L38,.86,39.1.24a1.71,1.71,0,0,1,2.58,1.48V37.43A1.72,1.72,0,0,1,40,39.15" transform="translate(0 0)"/>
                <path class="cls-3" d="M8.21,12.62A1.34,1.34,0,0,0,6.88,14V25.18a1.34,1.34,0,0,0,1.33,1.34H21.05V12.62ZM21.82,28.28H8.21a3.1,3.1,0,0,1-3.1-3.1V14a3.1,3.1,0,0,1,3.1-3.1H21.82a1.18,1.18,0,0,1,.27,0,.89.89,0,0,1,.73.87V27.39a.88.88,0,0,1-.73.87,1.18,1.18,0,0,1-.27,0" transform="translate(0 0)"/>
                <path class="cls-3" d="M3.44,14.84A1.94,1.94,0,0,0,1.76,17v5.22A1.94,1.94,0,0,0,3.44,24.3H5.11V14.84ZM6,26.07H3.44A3.69,3.69,0,0,1,0,22.18V17a3.68,3.68,0,0,1,3.44-3.88H6a.88.88,0,0,1,.89.88V25.18a.89.89,0,0,1-.89.89" transform="translate(0 0)"/>
                <path class="cls-3" d="M10.72,28.28l2.93,12.49a.37.37,0,0,0,.37.29h3.33a.85.85,0,0,1,0-.17l0-.13c0-.14-.05-.28-.07-.43s0-.15-.05-.24l0-.21,0-.17a58.32,58.32,0,0,1-.78-8c0-.21,0-.43,0-.65,0-.8,0-1.57.07-2.27,0-.18,0-.36,0-.55Zm6.71,14.54H14a2.13,2.13,0,0,1-2.09-1.64L8.75,27.6a.88.88,0,0,1,.17-.75.87.87,0,0,1,.69-.33H17.4a.89.89,0,0,1,.67.3.93.93,0,0,1,.21.7c-.07.48-.11,1-.14,1.42-.05.68-.07,1.39-.06,2.15v.61a54.81,54.81,0,0,0,.76,7.7l.06.38a.13.13,0,0,1,0,.06l0,.16c0,.17,0,.3.08.43l0,.12c0,.09,0,.18.05.26a1.73,1.73,0,0,1-.37,1.41,1.68,1.68,0,0,1-1.29.6" transform="translate(0 0)"/>
                <path class="cls-3" d="M40.8,25.78a.89.89,0,0,1,0-1.77,4.77,4.77,0,0,0,0-9.53.88.88,0,0,1,0-1.76,6.53,6.53,0,0,1,0,13.06" transform="translate(0 0)"/>
                <path class="cls-3" d="M55.44,20.13H51.08a.89.89,0,1,1,0-1.77h4.36a.89.89,0,0,1,0,1.77" transform="translate(0 0)"/>
                <path class="cls-3" d="M50.51,29.9a.87.87,0,0,1-.62-.26l-2.47-2.46a.88.88,0,0,1,1.25-1.25l2.46,2.46a.89.89,0,0,1-.62,1.51" transform="translate(0 0)"/>
                <path class="cls-3" d="M48.05,12.82a.91.91,0,0,1-.63-.26.89.89,0,0,1,0-1.25l2.47-2.46a.88.88,0,1,1,1.24,1.25l-2.46,2.46a.89.89,0,0,1-.62.26" transform="translate(0 0)"/>
            </g>
        </g>
    </g>
</svg>