<svg xmlns="http://www.w3.org/2000/svg" viewBox="0 0 61.77 62.3">
    <defs>
        <style>.cls-1{fill:none;stroke:#1a1c27;stroke-miterlimit:10;stroke-width:2.3px;}</style>
    </defs>
    <title>pag</title>
    <g id="Camada_2" data-name="Camada 2">
        <g id="Camada_1-2" data-name="Camada 1">
            <path class="cls-1" d="M5.4,38.29V44A12.79,12.79,0,0,0,18.14,56.86h4.25M1.15,42.58,5.4,38.29l4.25,4.29M56.37,24V18.29A12.79,12.79,0,0,0,43.63,5.44H39.38M60.62,19.72,56.37,24l-4.24-4.29M38,56.86h5.66A12.79,12.79,0,0,0,56.37,44V39.72M42.21,61.15,38,56.86l4.24-4.28M23.81,5.43H18.14A12.8,12.8,0,0,0,5.4,18.29v4.29M19.56,1.15l4.25,4.29L19.56,9.72M5.4,25.44a4.29,4.29,0,1,0,4.25,4.28A4.26,4.26,0,0,0,5.4,25.44Zm51,2.85a4.29,4.29,0,1,0,4.25,4.29A4.27,4.27,0,0,0,56.37,28.29ZM36.55,5.44A4.25,4.25,0,1,0,32.3,9.72,4.27,4.27,0,0,0,36.55,5.44ZM33.72,56.86a4.25,4.25,0,1,0-4.25,4.29A4.27,4.27,0,0,0,33.72,56.86ZM46.46,31.15A15.58,15.58,0,1,1,30.89,15.44,15.64,15.64,0,0,1,46.46,31.15ZM30.89,38.29v4.29m0-18.57V19.72M26.64,34v1.43a2.84,2.84,0,0,0,2.83,2.85H32.3a2.84,2.84,0,0,0,2.83-2.85v-.8a2.86,2.86,0,0,0-1.93-2.71l-4.63-1.56a2.86,2.86,0,0,1-1.93-2.71v-.8A2.84,2.84,0,0,1,29.47,24H32.3a2.84,2.84,0,0,1,2.83,2.85v1.43"/>
        </g>
    </g>
</svg>